<svg xmlns="http://www.w3.org/2000/svg" version="1.1" xmlns:xlink="http://www.w3.org/1999/xlink" xmlns:svgjs="http://svgjs.dev/svgjs" width="1000" height="1000" viewBox="0 0 1000 1000"><rect width="1000" height="1000" fill="#ffffff"></rect><g transform="matrix(0.7,0,0,0.7,149.57577376480424,438.65349197737055)"><svg viewBox="0 0 396 70" data-background-color="#0080ff" preserveAspectRatio="xMidYMid meet" height="176" width="1000" xmlns="http://www.w3.org/2000/svg" xmlns:xlink="http://www.w3.org/1999/xlink"><g id="tight-bounds" transform="matrix(1,0,0,1,0.23999088566381488,-0.1440291364360462)"><svg viewBox="0 0 395.52 70.28805361410222" height="70.28805361410222" width="395.52"><g><svg viewBox="0 0 571.9794188294304 101.6467436712329" height="70.28805361410222" width="395.52"><g><rect width="4.421904603816329" height="49.278812054794514" x="150.2521098685923" y="26.18396580821919" fill="#000000" opacity="1" stroke-width="0" stroke="transparent" fill-opacity="1" class="rect-o-0" data-fill-palette-color="primary" rx="1%" id="o-0" data-palette-color="#ffffff"></rect></g><g><rect width="4.421904603816329" height="49.278812054794514" x="160.46184772347712" y="26.18396580821919" fill="#000000" opacity="1" stroke-width="0" stroke="transparent" fill-opacity="1" class="rect-o-1" data-fill-palette-color="primary" rx="1%" id="o-1" data-palette-color="#ffffff"></rect></g><g transform="matrix(1,0,0,1,176.45941882943043,26.30654991780823)"><svg viewBox="0 0 395.52 49.03364383561644" height="49.03364383561644" width="395.52"><g><svg viewBox="0 0 395.52 49.03364383561644" height="49.03364383561644" width="395.52"><g><svg viewBox="0 0 395.52 49.03364383561644" height="49.03364383561644" width="395.52"><g transform="matrix(1,0,0,1,0,0)"><svg width="395.52" viewBox="1.350000023841858 -35.79999923706055 291.97998046875 36.20000076293945" height="49.03364383561644" data-palette-color="#ffffff"><path d="M1.35-18.05L1.35-18.05Q1.35-21.3 2.55-24.43 3.75-27.55 6.05-30.1 8.35-32.65 11.65-34.18 14.95-35.7 19.15-35.7L19.15-35.7Q24.15-35.7 27.83-33.55 31.5-31.4 33.3-27.95L33.3-27.95 27-23.55Q26.2-25.45 24.88-26.5 23.55-27.55 21.98-27.98 20.4-28.4 18.95-28.4L18.95-28.4Q16.6-28.4 14.85-27.48 13.1-26.55 11.95-25 10.8-23.45 10.25-21.55 9.7-19.65 9.7-17.75L9.7-17.75Q9.7-15.65 10.35-13.7 11-11.75 12.23-10.25 13.45-8.75 15.2-7.88 16.95-7 19.05-7L19.05-7Q20.55-7 22.1-7.5 23.65-8 24.98-9.08 26.3-10.15 27-11.9L27-11.9 33.7-7.95Q32.65-5.35 30.25-3.5 27.85-1.65 24.83-0.68 21.8 0.3 18.85 0.3L18.85 0.3Q15 0.3 11.78-1.28 8.55-2.85 6.23-5.48 3.9-8.1 2.63-11.38 1.35-14.65 1.35-18.05ZM33.95 0L46.2-35.5 55.05-35.5 67.25 0 58.85 0 56.1-7.95 45.05-7.95 42.35 0 33.95 0ZM46.35-13.6L54.75-13.6 50.6-27.25 46.35-13.6ZM95.19-31.9L91.59-25.1Q91.44-25.35 90.55-25.88 89.64-26.4 88.3-27 86.94-27.6 85.34-28.05 83.75-28.5 82.14-28.5L82.14-28.5Q80.05-28.5 78.89-27.78 77.75-27.05 77.75-25.55L77.75-25.55Q77.75-24.35 78.62-23.65 79.5-22.95 81.14-22.43 82.8-21.9 85.19-21.2L85.19-21.2Q88.59-20.3 91.09-19.03 93.59-17.75 94.92-15.75 96.25-13.75 96.25-10.45L96.25-10.45Q96.25-7.45 95.14-5.38 94.05-3.3 92.17-2.02 90.3-0.75 87.89-0.18 85.5 0.4 82.94 0.4L82.94 0.4Q80.34 0.4 77.62-0.13 74.89-0.65 72.39-1.63 69.89-2.6 67.8-4L67.8-4 71.39-11.15Q71.59-10.9 72.69-10.23 73.8-9.55 75.42-8.83 77.05-8.1 79.05-7.55 81.05-7 83.09-7L83.09-7Q85.3-7 86.37-7.7 87.44-8.4 87.44-9.65L87.44-9.65Q87.44-11 86.32-11.75 85.19-12.5 83.27-13.1 81.34-13.7 78.84-14.45L78.84-14.45Q75.59-15.45 73.47-16.7 71.34-17.95 70.32-19.75 69.3-21.55 69.3-24.25L69.3-24.25Q69.3-28 71.07-30.58 72.84-33.15 75.84-34.48 78.84-35.8 82.39-35.8L82.39-35.8Q84.89-35.8 87.22-35.2 89.55-34.6 91.57-33.7 93.59-32.8 95.19-31.9L95.19-31.9ZM123.39-35.5L131.59-35.5 131.59 0 123.39 0 123.39-14.55 109.24-14.55 109.24 0 101.04 0 101.04-35.5 109.24-35.5 109.24-21.75 123.39-21.75 123.39-35.5ZM158.24 0L150.04 0 150.04-35.5 174.14-35.5 174.14-28.3 158.24-28.3 158.24-20.65 171.34-20.65 171.34-14 158.24-14 158.24 0ZM203.89 0L178.49 0 178.49-35.5 186.69-35.5 186.69-7.2 203.89-7.2 203.89 0ZM222.63 0.3L222.63 0.3Q218.63 0.3 215.41-1.23 212.18-2.75 209.86-5.33 207.53-7.9 206.28-11.13 205.03-14.35 205.03-17.8L205.03-17.8Q205.03-21.35 206.36-24.55 207.68-27.75 210.06-30.28 212.43-32.8 215.68-34.25 218.93-35.7 222.78-35.7L222.78-35.7Q226.73-35.7 229.96-34.18 233.18-32.65 235.51-30.05 237.83-27.45 239.08-24.23 240.33-21 240.33-17.65L240.33-17.65Q240.33-14.1 239.03-10.9 237.73-7.7 235.33-5.18 232.93-2.65 229.71-1.18 226.48 0.3 222.63 0.3ZM213.38-17.7L213.38-17.7Q213.38-15.65 213.98-13.73 214.58-11.8 215.76-10.3 216.93-8.8 218.68-7.9 220.43-7 222.68-7L222.68-7Q225.03-7 226.78-7.93 228.53-8.85 229.68-10.4 230.83-11.95 231.41-13.88 231.98-15.8 231.98-17.8L231.98-17.8Q231.98-19.85 231.38-21.75 230.78-23.65 229.58-25.18 228.38-26.7 226.63-27.55 224.88-28.4 222.68-28.4L222.68-28.4Q220.33-28.4 218.61-27.5 216.88-26.6 215.71-25.08 214.53-23.55 213.96-21.63 213.38-19.7 213.38-17.7ZM261.33-18.95L255.38-35.45 262.93-35.45 266.63-24.1 270.33-35.45 277.93-35.45 271.88-18.95 275.48-9.5 284.38-35.5 293.33-35.5 279.48 0 272.38 0 266.63-13.9 260.93 0 253.78 0 239.98-35.5 248.88-35.5 257.83-9.5 261.33-18.95Z" opacity="1" transform="matrix(1,0,0,1,0,0)" fill="#000000" class="undefined-text-0" data-fill-palette-color="primary" id="text-0"></path></svg></g></svg></g></svg></g></svg></g><g><svg viewBox="0 0 138.67644336645532 101.6467436712329" height="101.6467436712329" width="138.67644336645532"><g><svg xmlns="http://www.w3.org/2000/svg" xmlns:xlink="http://www.w3.org/1999/xlink" version="1.1" x="0" y="0" viewBox="4.485995292663574 19.61624526977539 90.00102996826172 65.96875" enable-background="new 0 0 100 100" xml:space="preserve" height="101.6467436712329" width="138.67644336645532" class="icon-icon-0" data-fill-palette-color="accent" id="icon-0"><path fill="#000000" d="M94.487 42.836c0-0.296-0.161-0.569-0.419-0.715l-2.752-1.555 2.759-1.591c0.256-0.147 0.414-0.422 0.412-0.718 0-0.296-0.161-0.569-0.419-0.715L62.54 19.725c-0.254-0.146-0.564-0.145-0.819 0.003L4.901 52.489c-0.257 0.148-0.414 0.423-0.413 0.719s0.161 0.569 0.419 0.715l2.75 1.555-2.757 1.589c-0.257 0.147-0.414 0.423-0.413 0.718 0.001 0.296 0.161 0.569 0.419 0.715l2.751 1.555-2.757 1.591c-0.257 0.147-0.414 0.422-0.413 0.718s0.161 0.569 0.419 0.715l2.751 1.555-2.758 1.591c-0.257 0.147-0.414 0.422-0.413 0.718s0.161 0.569 0.419 0.715l31.526 17.819c0.126 0.072 0.266 0.108 0.406 0.108 0.143 0 0.285-0.037 0.413-0.111l23.499-13.549c0.077-0.018 0.16-0.021 0.232-0.062l11.507-6.618c0.089-0.052 0.148-0.133 0.211-0.21l21.374-12.323c0.256-0.148 0.414-0.423 0.412-0.719 0-0.296-0.161-0.569-0.419-0.715l-2.75-1.554 2.757-1.589c0.256-0.147 0.414-0.422 0.412-0.718 0-0.296-0.161-0.569-0.419-0.715l-2.752-1.557 2.759-1.59C94.331 43.406 94.489 43.132 94.487 42.836zM62.138 21.393l29.86 16.876-19.965 11.51L42.187 32.896 62.138 21.393zM6.978 53.197L29 40.5l29.857 16.874L36.835 70.071 6.978 53.197zM6.978 57.774l2.348-1.354 27.107 15.32c0.126 0.072 0.266 0.107 0.406 0.107 0.143 0 0.285-0.037 0.413-0.111l22.495-12.969v2.673L36.835 74.65 6.978 57.774zM6.978 62.352l2.349-1.354 27.106 15.322c0.126 0.072 0.266 0.107 0.406 0.107 0.143 0 0.285-0.037 0.413-0.111l22.495-12.97v2.672L36.835 79.227 6.978 62.352zM36.835 83.807L6.978 66.93l2.349-1.354 27.106 15.319c0.126 0.072 0.266 0.107 0.406 0.107 0.143 0 0.285-0.036 0.413-0.111l22.495-12.968v2.674L36.835 83.807zM91.998 52.001L72.905 63.01v-2.672l16.753-9.658L91.998 52.001zM91.998 47.426L72.905 58.433V55.76l16.751-9.658L91.998 47.426zM72.905 53.855v-2.673l16.752-9.659 2.341 1.322L72.905 53.855z" data-fill-palette-color="accent"></path><g fill="#ffffff" data-fill-palette-color="accent"><path fill="#000000" d="M16.503 49.738c0.545-0.313 1.14-0.565 1.787-0.754 0.645-0.188 1.258-0.322 1.844-0.401l0.447 0.818c-0.555 0.085-1.116 0.211-1.682 0.384-0.574 0.172-1.059 0.376-1.466 0.61-0.703 0.405-1.146 0.842-1.329 1.312-0.179 0.469-0.117 0.934 0.19 1.396l4.031-2.326 0.987 0.571-4.31 2.488c0.076 0.057 0.16 0.114 0.246 0.167 0.086 0.061 0.184 0.115 0.29 0.18 0.204 0.117 0.407 0.219 0.609 0.305l4.292-2.481 0.961 0.558-4.003 2.31c0.806 0.175 1.625 0.203 2.458 0.084 0.835-0.117 1.596-0.373 2.278-0.766 0.419-0.241 0.775-0.525 1.067-0.854 0.293-0.325 0.512-0.647 0.659-0.969l1.323 0.311c-0.14 0.338-0.371 0.693-0.698 1.067-0.328 0.373-0.762 0.719-1.308 1.033-0.516 0.296-1.067 0.538-1.655 0.72-0.588 0.185-1.188 0.308-1.8 0.376-0.611 0.066-1.225 0.078-1.84 0.039-0.615-0.044-1.206-0.142-1.767-0.301l-1.169 0.676-0.957-0.558 0.949-0.548c-0.098-0.043-0.194-0.092-0.291-0.143-0.097-0.05-0.196-0.107-0.305-0.169-0.106-0.062-0.203-0.121-0.289-0.178-0.087-0.057-0.168-0.111-0.247-0.168l-0.947 0.549-0.989-0.574 1.184-0.684c-0.262-0.332-0.426-0.673-0.498-1.032-0.069-0.355-0.045-0.713 0.072-1.066 0.12-0.355 0.335-0.699 0.647-1.037C15.587 50.346 15.994 50.033 16.503 49.738z" data-fill-palette-color="accent"></path></g></svg></g></svg></g></svg></g><defs></defs></svg><rect width="395.52" height="70.28805361410222" fill="none" stroke="none" visibility="hidden"></rect></g></svg></g></svg>